<svg width="172" height="44" viewBox="0 0 172 44" fill="none" xmlns="http://www.w3.org/2000/svg">
<path d="M19.6603 30.3026H7.63255L13.647 16.2889L19.6603 30.3026ZM13.6458 11.305L0.0860817 42.8862L0 43.087H2.19489L6.77345 32.3237H20.5205L25.139 43.087H27.376L13.7763 11.6062L13.6458 11.305Z" fill="#050606"/>
<path d="M18.3034 0.459504L15.1481 7.77204L16.2357 10.2881L19.3908 2.98096L18.3034 0.459504Z" fill="#050606"/>
<path d="M42.5442 26.9304L42.4938 27.0644L42.4935 27.0648L42.4938 27.0644L42.5419 26.9293C38.8971 25.5904 35.4536 24.3253 35.4536 20.301C35.4536 17.0418 37.9822 14.9359 41.8954 14.9359C44.6253 14.9359 46.8944 15.7929 48.4588 17.4143L48.7922 17.7593L50.014 16.2323L49.7762 15.9588C48.1158 14.0559 45.1114 12.8738 41.9366 12.8738C36.7932 12.8738 33.3371 15.8589 33.3371 20.301C33.3371 25.5694 37.518 27.1552 41.564 28.6889C45.2997 30.1063 48.828 31.444 48.828 35.6185C48.828 39.5895 45.0228 41.3979 41.4874 41.3979C38.6614 41.3979 35.6253 39.938 34.1048 37.8467L33.8041 37.4334L32.4543 38.8713L32.6204 39.1521C34.0748 41.608 37.9216 43.4595 41.5688 43.4595C47.002 43.4595 50.9452 40.1442 50.9452 35.5772C50.9452 30.0183 46.674 28.4482 42.5442 26.9304" fill="#050606"/>
<path d="M59.8983 43.087H61.9745V13.247H59.8983V43.087Z" fill="#050606"/>
<path d="M80.2169 13.247H77.317L62.8292 27.5374L77.6777 43.0436L77.7196 43.087H80.6611L65.7069 27.4727L80.2169 13.247Z" fill="#050606"/>
<path d="M90.779 28.9285H103.858V26.9081H90.779V15.2674H105.084V13.247H88.703V43.087H105.493V41.0664H90.779V28.9285Z" fill="#050606"/>
<path d="M136.814 39.2674L116.436 13.247H114.824V43.087H116.819V17.1446L137.111 42.9245L137.238 43.087H138.849V13.247H136.814V39.2674" fill="#050606"/>
<path d="M147.811 13.247V15.2674H158.887V43.087H160.923V15.2674H172V13.247H147.811" fill="#050606"/>
</svg>
